<svg width="22" height="23" viewBox="0 0 22 23" fill="none" xmlns="http://www.w3.org/2000/svg">
<g clip-path="url(#clip0_221_2957)">
<path d="M11 0.5C4.92499 0.5 0 5.42499 0 11.5C0 17.575 4.92499 22.5 11 22.5C17.075 22.5 22 17.575 22 11.5C22 5.42499 17.075 0.5 11 0.5ZM11 20.6667C5.93751 20.6667 1.83335 16.5625 1.83335 11.5C1.83335 6.43751 5.93751 2.33335 11 2.33335C16.0625 2.33335 20.1667 6.43751 20.1667 11.5C20.1667 16.5625 16.0625 20.6667 11 20.6667Z" fill="white"/>
<path d="M14.9352 9.01848L11 12.9536L7.06485 9.01848C6.70687 8.66051 6.12645 8.66051 5.76848 9.01848C5.41051 9.37645 5.41051 9.95687 5.76848 10.3148L10.3518 14.8982C10.7098 15.2562 11.2902 15.2562 11.6482 14.8982L16.2315 10.3148C16.5895 9.95687 16.5895 9.37645 16.2315 9.01848C15.8735 8.66051 15.2931 8.66051 14.9352 9.01848Z" fill="white"/>
</g>
<defs>
<clipPath id="clip0_221_2957">
<rect width="22" height="22" fill="white" transform="translate(0 0.5)"/>
</clipPath>
</defs>
</svg>
