<svg width="34" height="34" viewBox="0 0 34 34" fill="none" xmlns="http://www.w3.org/2000/svg">
<g clip-path="url(#clip0_541_6)">
<path d="M17 0C7.61135 0 0 7.61135 0 17C0 26.3886 7.61135 34 17 34C26.3886 34 34 26.3886 34 17C34 7.61135 26.3886 0 17 0ZM17 31.1666C9.17615 31.1666 2.83336 24.8239 2.83336 17C2.83336 9.17615 9.17615 2.83336 17 2.83336C24.8239 2.83336 31.1666 9.17615 31.1666 17C31.1666 24.8239 24.8239 31.1666 17 31.1666Z" fill="black"/>
<path d="M23.0816 13.1649L17 19.2465L10.9184 13.1649C10.3652 12.6117 9.46815 12.6117 8.91492 13.1649C8.36169 13.7182 8.36169 14.6152 8.91492 15.1684L15.9983 22.2518C16.5515 22.805 17.4485 22.805 18.0018 22.2518L25.0851 15.1684C25.6383 14.6152 25.6383 13.7182 25.0851 13.1649C24.5318 12.6117 23.6349 12.6117 23.0816 13.1649Z" fill="black"/>
</g>
<defs>
<clipPath id="clip0_541_6">
<rect width="34" height="34" fill="white"/>
</clipPath>
</defs>
</svg>
